<?xml version="1.0" encoding="UTF-8"?>
<svg data-bbox="0 0 2264.52 317.28" viewBox="0 0 2264.5 317.27" xmlns="http://www.w3.org/2000/svg" data-type="color">
    <g>
        <path d="m0 273.2 33.05-22.02L66.1 273.2 0 317.27V273.2ZM317.27 44.09l-33.05 22.02-33.05-22.02L317.27 0v44.09Zm0 167.42L158.63 317.28 0 211.51 188.39 85.94l33.05 22.04L69.41 209.33l92.54 61.69 42.95-28.64-33.05-22.04 79.33-52.9 66.1 44.07ZM0 105.78 158.65.04l158.64 105.74L128.9 231.35l-33.05-22.04 152.03-101.35-92.54-61.68-42.97 28.64 33.05 22.02-79.33 52.9L0 105.78Zm380.72 89.58v68.97h86.5c20.73 0 72.25-2.34 72.25-55.95 0-4.55-.23-8.92-.75-13.03h-53.71c.27 2.09.38 4.31.38 6.61 0 29.57-24.5 29.88-35.38 29.88h-16.06v-36.43h-53.24v-.04Zm181.06 0-21.13 68.95h43.51l10.87-38.33h46.69l10.6 38.33h46.15l-20.72-68.95h-43.92l.98 3.98h-33.42l.9-3.98h-40.51Zm146.87 0v68.95h37.34v-68.95h-37.34Zm56.75 0 28.77 68.95h51.9v-68.95h-37.4v7.79l-3.25-7.79h-40.03Zm98.49 0c.48 43.25 5.98 74.04 65.71 74.04 38.22 0 60.57-15.15 60.57-62.36h-43.49c-.54 13.92-.77 35.93-17.08 35.93s-20.35-8.7-21.06-47.66l-44.66.04Zm139.33 0c.92 39.58 8.28 74.04 67.22 74.04s66.31-34.46 67.22-74.01l-45.14-.03c-.85 33.05-5.07 47.64-22.09 47.64s-21.26-14.56-22.08-47.66h-45.13Zm182.44 0v68.95h65.77c55.48 0 63.41-39.57 64.34-68.93l-44.64-.03c-1.28 30.49-6.92 42.54-24.92 42.54h-16.74v-42.54h-43.8Zm146.65 0c.88 39.51 8.11 74.04 67.28 74.04s66.35-34.53 67.26-74.07l-45.18.03c-.84 33.13-5.03 47.73-22.09 47.73s-21.31-14.59-22.12-47.73h-45.14Zm180.21 0v68.97h86.53c20.73 0 72.24-2.34 72.24-55.95 0-4.56-.24-8.92-.72-13.03h-52.98c.24 2.17.36 4.46.36 6.88 0 29.57-19.98 29.89-28.83 29.89h-23.29v-36.79l-53.3.03Zm173.31 0v68.94h45.14v-68.94h-45.14Zm63.6 0 29.98 68.94h72.15l10.9-38.35h46.67l10.59 38.35h104.86c28.96.01 58.31-3.84 58.31-48.66.13-7.04-1.52-13.99-4.8-20.22l-65.33-.06c13.41 6.34 23.81 12.8 23.81 23.05 0 11.74-6.29 19.68-19.17 19.68h-59.46l-12.8-42.72h-43.93l1.01 4.08h-33.45l.91-4.08h-40.85l-16.51 53.38-24.14-53.38h-38.75Zm349.8 0v68.95h44.05v-68.95h-44.05Zm69.85 0v68.95h95.44v-26.19h-51.39v-42.78h-44.05v.01Z" fill="#4f4f4f" data-color="1"/>
        <path d="M433.98 195.37v-23.26l10.63-.31h6.79c22.68 0 31.74 8.77 33.63 23.57h53.71c-2.74-21.95-13.78-36.87-42.99-40.55 26.57-5.27 39.85-22.83 39.85-47.13 0-45.1-30.78-54.76-68.03-54.76h-86.84V195.4h53.25v-.03Zm168.3 0 15-66.81 16.52 66.81h43.92L646.45 91.28h-52.77l-31.91 104.09h40.51Zm143.72 0v-46.46l19.39 46.48h40.03L761.83 91.3h-53.18v104.09H746Zm100.07 0V91.28h-37.4v104.09h37.4Zm62.47 0c-.09-5.72-.13-11.44-.13-17.16 0-55.44 4.23-64.79 20.36-64.79 11.61 0 16.82 8.8 16.82 32.27h43.22c1.62-37.89-19.42-58.7-61.1-58.7-62.06 0-63.87 39.43-63.87 91.19 0 5.88-.01 11.61.03 17.12l44.66.07Zm139.81 0c-.14-5.24-.18-10.95-.18-17.16 0-45.23 2.56-64.79 22.26-64.79s22.26 19.55 22.26 64.79c0 6.21-.04 11.92-.18 17.14l45.14.03c.13-5.63.13-11.4.13-17.16 0-46.69 0-91.19-67.35-91.19s-67.35 44.5-67.35 91.19c0 5.77 0 11.54.13 17.19l45.14-.03Zm181.14 0v-77.66h17.9c24.04 0 24.04 28.12 24.04 60.12 0 6.41-.11 12.23-.3 17.5l44.63.03c.26-7.1.09-13.61.09-18.81 0-54.11-9.9-85.83-62.83-85.83h-67.38v104.65h43.85v.01Zm148 0c-.13-5.59-.19-11.19-.18-16.78 0-45.03 2.57-64.51 22.26-64.51s22.25 19.48 22.25 64.51c0 6.05-.03 11.62-.17 16.78h45.18c.11-5.54.11-11.13.11-16.78 0-46.48 0-90.81-67.38-90.81s-67.4 44.32-67.4 90.81c0 5.63 0 11.24.13 16.75l45.2.03Zm188.35 0v-22.92l13.41-.33h10.95c18.34 0 25.75 8.67 27.37 23.32l52.98-.03c-2.74-21.94-13.84-36.86-43.01-40.55 26.56-5.27 39.85-22.85 39.85-47.14 0-45.08-30.78-54.76-68.04-54.76h-86.83v142.41h53.31Zm165.12 0v-77.51h14.96c12.73 0 23.78 9.26 23.78 26.3 0 14.42-7.22 26.27-18.81 25.52l-12.57.18 11.1 25.55h38.77l-6.46-14.35c22.45-4.18 31.36-18.4 31.44-44.5.07-29.47-17.49-45.3-44.8-45.3h-82.55v104.13h45.14v-.03Zm138.72 0 15.03-66.71 16.48 66.71h43.93l-31.23-104.12h-52.8l-32.27 104.12h40.85Zm208.35 0c-16.51-30.79-70.16-31.39-70.16-59.15 0-11.99 7.32-18.46 19.66-18.46h40.11V91.12h-56.41c-46.35 0-57.79 20.93-57.79 48 0 33.33 34.7 44.6 59.29 56.22l65.29.03Zm65.19 0V91.28h-44.05v104.09h44.05Zm69.85 0V91.28h-44.05v104.09h44.05ZM433.99 139.46V85.41h19.11c17.36 0 29.61 11.42 29.61 26.94 0 20.5-15.66 26.94-26.88 26.94h-17.92l-3.92.17Zm1131.86.33V85.74h25.76c14.11 0 24.1 11.44 24.1 26.94 0 20.49-12.75 26.94-21.9 26.94h-14.58l-13.38.17Z" fill="#4f4f4f" data-color="1"/>
    </g>
</svg>
