<?xml version="1.0" encoding="UTF-8"?>
<svg data-bbox="0.84 0.971 708.031 398.06" xmlns="http://www.w3.org/2000/svg" viewBox="0 0 709 400" height="400" width="709" data-type="color">
    <g>
        <path fill="#4f4f4f" d="m322.72 214.317-31.995-21.362 144.079-95.99-80.085-53.361L314.72 70.33l32.089 21.179-72.085 48.087-63.995-42.725 143.99-95.9 144.08 95.9zm-47.996 31.999-31.996-21.362-31.999 21.362v42.635zM466.8 64.966l-31.996-21.362L498.799.972v42.632z" clip-rule="evenodd" fill-rule="evenodd" data-color="1"/>
        <path fill="#4f4f4f" d="m394.809 219.592-32.089-21.456 71.991-47.993 64.088 42.812-144.08 95.996-143.989-95.996L386.715 75.602l31.999 21.363-143.99 95.99 79.995 53.361zM33.836 397.301c7.907 0 27.636-.725 27.636-19.088 0-9.821-3.454-16.729-16.726-18.272v-.184c10.182-1.546 15.273-7.543 15.273-15.904 0-15.363-11.819-18.637-26-18.637H.84v72.085zm-14.364-42.539v-18.453h11.545c6.27 0 10.726 3.909 10.726 9.18 0 6.999-5.635 9.183-9.724 9.183h-6.544zm6.002 10.998h4.908c9.457 0 12.363 3.911 12.363 10.272 0 10.091-8.909 10.182-12.817 10.182H19.475V365.85zm111.263 31.634v-43.179h.181l19.725 43.179h19.816v-59.087h-12.724v40.908h-.274l-19.181-40.908h-20.27v59.087zm71.177 1.637c14.451 0 22.451-5.181 22.451-21.269h-15.363c-.274 4.817.091 12.27-7.088 12.27-8.726 0-9.908-6.635-9.908-22.088 0-15.456 1.182-22.091 9.908-22.091 4.543 0 6.363 3 6.363 10.998h15.273c.635-12.908-5.819-19.997-21.633-19.997-25.726 0-25.726 15.183-25.726 31.09-.003 15.814-.003 31.087 25.723 31.087m-131.99-1.637 4.181-13.091h20.909l3.998 13.091h16.091l-19.816-59.087H81.104l-20.27 59.087zm21.816-22.178H83.105l6.999-25.544h.273zm162.259 14.813c-8.819 0-9.908-6.635-9.908-22.088 0-15.456 1.089-22.091 9.908-22.091 8.726 0 9.908 6.635 9.908 22.091 0 15.453-1.182 22.088-9.908 22.088m0 9.002c25.725 0 25.725-15.27 25.725-31.087 0-15.907 0-31.09-25.725-31.09s-25.725 15.183-25.725 31.09c0 15.814 0 31.087 25.725 31.087m401.787-1.637v-59.087h-15.273v59.087zm47.085 0v-9.002h-21.179v-50.085h-15.273v59.087zm-246.25-.093c7.907 0 27.636-.725 27.636-18.998 0-9.908-3.454-16.816-16.729-18.362v-.184c10.182-1.546 15.182-7.543 15.182-15.904 0-15.363-11.725-18.637-25.908-18.637h-33.179v72.085zm-14.367-42.448v-18.456h11.548c6.27 0 10.723 3.911 10.723 9.183 0 6.998-5.635 9.182-9.724 9.182h-6.544zm6.003 10.997h4.907c9.457 0 12.36 3.908 12.36 10.272 0 10.092-8.906 10.272-12.817 10.272h-10.456V366.03zm-133.901-18.543h7.91c10.726 0 10.726 9.544 10.726 20.454 0 14.908-1.817 20.544-11.181 20.544h-7.455zm-15.451 49.994h25.181c26.27 0 24.546-20.815 24.546-29.905 0-18.453-3.728-29.272-24.001-29.272h-25.726zm80.721-7.179c-8.819 0-9.999-6.634-9.999-21.997s1.183-22.001 9.999-22.001c8.725 0 9.908 6.635 9.908 22.001 0 15.363-1.183 21.997-9.908 21.997m0 8.909c25.725 0 25.725-15.27 25.725-30.903 0-15.908 0-31-25.725-31s-25.726 15.092-25.726 31c0 15.63 0 30.903 25.726 30.903m191.983-23.273h-14.635l6.998-25.452h.184zm41.091 21.636c11.09 0 22.268-1.363 22.268-16.632 0-18.544-29.179-15.908-29.179-27.092 0-4.089 2.726-6.27 7.456-6.27h19.819v-9.09h-21.547c-17.724 0-22.087 7.089-22.087 16.362 0 17.545 29.27 16.452 29.27 27.089 0 3.998-2.453 6.634-7.36 6.634h-19.365l-16.816-50.085h-20.18l-17.908 52.179-11.001-21.543c8.548-1.363 11.999-6.273 11.999-15.179.091-10.002-6.634-15.457-17.09-15.457h-30.635v59.087h15.363v-49.994h9.089c4.82 0 8.001 3.183 8.001 8.999 0 4.908-2.91 8.906-7.546 8.723h-6.274l16.455 32.272h24.363l4.182-13.091h20.818l4.089 13.091z" clip-rule="evenodd" fill-rule="evenodd" data-color="1"/>
    </g>
</svg>
