<?xml version="1.0" encoding="UTF-8"?>
<svg data-bbox="-0.04 0 7235.09 6845" xmlns="http://www.w3.org/2000/svg" viewBox="0 0 7235.05 6845" data-type="color">
    <g>
        <path fill="#4f4f4f" d="M877.35 6829.57h197.13v-987.3H877.35z" data-color="1"/>
        <path fill="#4f4f4f" d="M668.4 6138.07c0-162.72-134.39-295.78-298.65-295.78H0v987.3h381.71c164.13 0 298.58-133.25 298.58-296-.13-77.59-33.21-148.36-85.8-201.29 45.91-52.12 73.91-120 73.91-194.26m-298.65-104.22c58.14 0 107.06 47.65 107.06 104.25s-48.92 104.38-107.06 104.38H197v-208.63zm0 604.18H197v-208.77h172.75c58.14 0 107.06 47.85 107.06 104.39S427.89 6638 369.75 6638" data-color="1"/>
        <path fill="#4f4f4f" d="M1510.08 5842.27h-197.14v987.3h514v-197.14h-316.86z" data-color="1"/>
        <path fill="#4f4f4f" d="M2183.3 5842.27h-197.14v987.3h514v-197.14H2183.3z" data-color="1"/>
        <path fill="#4f4f4f" d="m3081.55 5842.27-402.23 987.3h222.13l36.35-98.64h337.54l36.36 98.64h222.2l-402.3-987.3zm-71.24 691.66 96.3-260.89 96 260.89z" data-color="1"/>
        <path fill="#4f4f4f" d="M4981.78 6018.42c174.95 0 317.43 142.35 317.43 317.56 0 175-142.48 317.43-317.43 317.43s-317.49-142.47-317.49-317.41c0-175.21 142.4-317.56 317.49-317.56m0-191.59c-281.14 0-509.08 227.88-509.08 509.15 0 281 227.94 509 509.08 509s509-228 509-509c0-281.27-227.88-509.15-509-509.15" data-color="1"/>
        <path fill="#4f4f4f" d="M4367.84 6138.11c0-162.72-134.39-295.77-298.65-295.77h-369.75v987.16h381.71c164.13 0 298.58-133.05 298.58-295.77 0-77.66-33.21-148.36-85.8-201.35 45.91-52.06 73.91-120 73.91-194.27m-298.65-104.45c58.14 0 107 47.85 107 104.45s-48.91 104.45-107 104.45h-172.75v-208.9zm0 604.38h-172.75v-208.7h172.75c58.14 0 107 47.78 107 104.38s-48.91 104.32-107 104.32" data-color="1"/>
        <path fill="#4f4f4f" d="M7038.05 6330.57v319.17a305.23 305.23 0 0 1-44.31 3.54c-174.95 0-317.29-142.41-317.29-317.43s142.34-317.36 317.29-317.36c63.09 0 115.08 19.72 149.56 37.89-.33-.4 72.64-178.29 72.64-178.29a508.94 508.94 0 0 0-222.2-51c-281 0-508.88 227.68-508.88 508.75s227.88 508.89 508.88 508.89a502.94 502.94 0 0 0 143.88-20.92 512.53 512.53 0 0 0 97.43-39.76v-453.48z" data-color="1"/>
        <path fill="#4f4f4f" d="M6165.37 5842.34v547.78l-475.88-547.78h-76.38v987.16h197v-547.78L6286 6829.5h76.38v-987.16z" data-color="1"/>
        <path fill="#4f4f4f" d="M5317.14 3570.76c-73.41-230.15 193.67-645.56 806.65-553.53 0 0-218.44-285.4-914.59-229.55-774.37 66.66-1430.59 635.05-2046.87 936.36-614.78 301.16-982.75 201.17-1093.39-91.73-108.55-291.7 203.42-605 809.5-588.21-378.18-336.44-966.39-295.3-1416.48-152.23-418.56 133.91-855.28 389-1462 661v1331.5l7160.73-2-1.35-1284.51c-1462 482.36-1769.28 195.62-1842.24-27.17" data-color="1"/>
        <path fill="#4f4f4f" d="M2878.81 1194.43c-605.17-18-918.49 295.46-810.25 587.16 112.45 292.6 479.07 392.14 1095.2 91.73C3780 1572.16 4436 1001.81 5210.47 938.16c694.95-57.35 914.29 230.15 914.29 230.15-614.93-93.53-879.91 322.48-806.19 552.47 71.91 223 378.77 510.45 1840.74 24.63V0L1.58 2.1v1700.67c606.07-272.34 1041.9-526.35 1459.71-661.17 451.71-144.73 1040.1-184.81 1417.52 152.83" data-color="1"/>
    </g>
</svg>
