<?xml version="1.0" encoding="UTF-8"?>
<svg data-bbox="0 -0.006 809.61 268.536" viewBox="0 0 809.62 268.54" xmlns="http://www.w3.org/2000/svg" data-type="color">
    <g>
        <defs>
            <clipPath id="3a6795b3-c547-47b4-b3db-18cd268fd51d">
                <path d="M809.62 0v268.54H0V0h809.62z"/>
            </clipPath>
        </defs>
        <g clip-path="url(#3a6795b3-c547-47b4-b3db-18cd268fd51d)">
            <path d="M621.4 86.1c4.59 0 10.83-.77 15.29-2.05 1.4-.38 1.79-.76 1.79-2.17v-38.2c0-.76-.51-1.28-1.27-1.28h-7.13c-.77 0-1.27.51-1.27 1.28v33.73c-1.66.38-4.46.76-6.75.76-6.37 0-8.79-2.81-8.79-10.22V43.67c0-.76-.5-1.28-1.27-1.28h-7.13c-.76 0-1.27.51-1.27 1.28v25.42c0 10.61 4.72 17 17.84 17" fill="#4f4f4f" data-color="1"/>
            <path d="M650.07 85.33h7.13c.76 0 1.27-.51 1.27-1.28V29.63c0-1.02-.51-1.66-1.66-1.4l-6.75 1.15c-.89.13-1.27.51-1.27 1.53v53.14c0 .76.51 1.28 1.27 1.28Z" fill="#4f4f4f" data-color="1"/>
            <path d="m682.55 96.19-6.75 1.15c-.89.13-1.27.51-1.27 1.53v53.15c0 .76.51 1.28 1.27 1.28h7.13c.77 0 1.28-.51 1.28-1.28V97.59c0-1.02-.51-1.66-1.66-1.4Z" fill="#4f4f4f" data-color="1"/>
            <path d="m754.67 128.9-6.12-1.79c-3.7-1.02-5.22-1.92-5.22-5.11 0-3.45 2.67-4.47 7.9-4.47 3.31 0 7.77.9 8.91 1.02 1.02.13 1.4-.25 1.79-1.27l.89-2.94c.51-1.53 0-2.04-.89-2.42-3.05-1.15-8.15-2.3-12.36-2.3-9.82 0-15.29 5.11-15.29 12.52 0 6.38 2.54 9.96 8.66 11.75l7.01 2.04c4.34 1.15 5.09 2.43 5.09 5.24 0 3.7-2.55 4.98-8.28 4.98-3.69 0-8.79-.9-9.94-1.02-1.02-.13-1.4.26-1.78 1.28l-.89 2.94c-.51 1.53 0 2.04.89 2.42 3.06 1.15 8.53 2.3 13.38 2.3 10.83 0 15.92-4.99 15.92-13.03 0-8.56-4.59-10.61-9.68-12.14" fill="#4f4f4f" data-color="1"/>
            <path d="M734.67 81.88v-38.2c0-.76-.51-1.28-1.27-1.28h-7.13c-.76 0-1.27.51-1.27 1.28v33.73c-1.66.38-4.46.76-6.75.76-6.37 0-8.79-2.81-8.79-10.22V43.67c0-.76-.51-1.28-1.27-1.28h-7.13c-.76 0-1.27.51-1.27 1.28v25.42c0 10.61 4.72 17 17.84 17 4.59 0 10.83-.77 15.29-2.05 1.4-.38 1.79-.76 1.79-2.17" fill="#4f4f4f" data-color="1"/>
            <path d="M718.48 128.51h-16.56v-1.02c0-6.65 2.67-10.35 8.41-10.35s8.15 3.45 8.15 10.35v1.02Zm-8.53-18.91c-10.32 0-17.71 7.03-17.71 19.42v5.88c0 13.16 6.88 19.16 20.51 19.16 4.84 0 8.79-1.03 10.83-1.66 1.14-.38 1.79-.9 2.04-1.92l.89-3.33c.38-1.53-.38-1.92-1.66-1.79-1.4.13-6.75.76-9.81.76-8.03 0-13.12-1.4-13.12-10.22v-.76h24.46c.77 0 1.27-.26 1.27-1.79v-4.34c0-12.78-5.6-19.42-17.71-19.42" fill="#4f4f4f" data-color="1"/>
            <path d="M765.87 41.64c-8.02 0-13.5.76-20.13 2.42-1.02.26-1.4.9-1.4 2.17v37.81c0 .76.51 1.28 1.27 1.28h7.13c.76 0 1.27-.51 1.27-1.28v-33.6c3.05-.64 6.75-.9 9.94-.9 1.4 0 1.91-.51 2.29-1.66l1.28-4.47c.25-1.02-.26-1.79-1.66-1.79Z" fill="#4f4f4f" data-color="1"/>
            <path d="M693.51 79.32c.39-1.53-.38-1.92-1.14-1.92-1.15 0-3.57.51-7.52.51-4.34 0-6.63-2.17-6.63-7.41V50.57h12.49c.76 0 1.27-.51 1.27-1.28v-5.62c0-.76-.51-1.28-1.27-1.28h-12.49V29.62c0-1.02-.51-1.66-1.66-1.4l-6.75 1.15c-.89.13-1.27.51-1.27 1.53v39.99c0 9.2 3.44 15.2 14.27 15.2 3.82 0 6.25-.77 7.65-1.28 1.14-.38 1.79-.9 2.04-1.92l1.02-3.58Z" fill="#4f4f4f" data-color="1"/>
            <path d="M796.33 77.28c-1.53.38-4.84.76-7 .76-6.12 0-9.05-3.19-9.05-11.24v-5.88c0-8.05 2.93-11.24 9.05-11.24 2.16 0 5.48.38 7 .76v26.83Zm7.9-33.6c-4.84-1.28-11.08-2.04-15.16-2.04-12.61 0-18.73 7.54-18.73 19.16v6.13c0 12.9 6.12 19.16 18.73 19.16 4.08 0 10.32-.77 15.16-2.05 1.4-.38 1.79-.76 1.79-2.17V45.84c0-1.41-.38-1.79-1.79-2.17" fill="#4f4f4f" data-color="1"/>
            <path d="M796.33 145.25c-1.53.39-4.84.77-7 .77-6.12 0-9.05-3.19-9.05-11.24v-5.88c0-8.05 2.93-11.24 9.05-11.24 2.16 0 5.48.39 7 .77v26.83Zm7.9-33.6c-4.84-1.28-11.08-2.04-15.16-2.04-12.61 0-18.73 7.54-18.73 19.16v6.13c0 12.9 6.12 19.16 18.73 19.16 4.08 0 10.32-.77 15.16-2.04 1.4-.38 1.79-.76 1.79-2.17v-36.03c0-1.4-.38-1.79-1.79-2.17" fill="#4f4f4f" data-color="1"/>
            <path d="m576.94 109.73-6.75 1.15c-.89.13-1.27.51-1.27 1.53v39.35c0 .76.51 1.53 1.27 1.53h7.39c.51 0 1.02-.77 1.02-1.53v-40.63c0-1.02-.5-1.66-1.66-1.4Z" fill="#4f4f4f" data-color="1"/>
            <path d="m577.06 96.19-7 1.15c-.89.13-1.27.51-1.27 1.53v6.26c0 1.02.51 1.66 1.66 1.4l7.01-1.15c.89-.13 1.27-.51 1.27-1.53v-6.26c0-1.02-.51-1.66-1.66-1.4" fill="#4f4f4f" data-color="1"/>
            <path d="m595.28 82.78 1.02-3.45c.39-1.53-.38-1.92-1.14-1.92-1.14 0-4.84.51-8.79.51-6.37 0-9.94-2.17-9.94-10.47V60.3c0-8.3 3.44-10.47 9.56-10.47 3.82 0 5.98.51 6.88.51 1.02 0 1.4-.38 1.78-1.4l.89-3.19c.51-1.53 0-2.17-.89-2.42-1.4-.51-5.6-1.66-9.68-1.66-12.49 0-18.47 7.28-18.47 18.65v7.15c0 12.52 6.12 18.66 17.84 18.66 5.23 0 7.52-.9 8.92-1.4 1.14-.38 1.78-.9 2.04-1.92Z" fill="#4f4f4f" data-color="1"/>
            <path d="M604.33 109.6c-4.59 0-10.83.77-15.29 2.04-1.4.38-1.78.77-1.78 2.17v38.2c0 .76.51 1.28 1.27 1.28h7.13c.77 0 1.27-.51 1.27-1.28v-33.73c1.66-.38 4.46-.76 6.75-.76 6.37 0 8.79 2.81 8.79 10.22v24.28c0 .76.51 1.28 1.27 1.28h7.13c.76 0 1.27-.51 1.27-1.28V126.6c0-10.61-4.71-17-17.84-17" fill="#4f4f4f" data-color="1"/>
            <path d="M640.13 134.39v-5.5c0-5.62 1.02-11.24 9.05-11.24 1.79 0 5.23.26 7.01.77v26.44c-2.29.26-4.59.51-6.5.51-7.9 0-9.56-4.09-9.56-10.99m23.96-22.62c-4.08-1.28-10.71-2.17-15.16-2.17-12.23 0-18.73 7.15-18.73 19.16v5.75c0 12.52 6.37 18.91 17.96 18.91 2.85 0 5.69-.44 8.03-1.02v1.02c0 5.75-2.93 7.28-8.53 7.28-6.5 0-10.45-.89-12.23-1.15-1.02-.13-1.53.38-1.79 1.4l-.76 3.32c-.51 1.53 0 2.17.89 2.43 3.82 1.15 9.69 2.17 15.55 2.17 9.93 0 16.56-4.73 16.56-16.23v-38.71c0-1.4-.38-1.79-1.79-2.17" fill="#4f4f4f" data-color="1"/>
            <path d="M519.82 103.46c-8.65-1.38-18.1-2.57-33.05-12.55 0 0-2.99-2.06-5.38.27 0 0-9.9 10.86-32.01 21.71-2.99 1.47-3.45 4.37-2.79 7.13 1.66 6.99 4.68 16.81 3.45 18.51-1.57 2.18-19.53 2.46-22.52 6.39-.72.95-3.39 7.4 1.2 16.78 3.62 7.4 9.08 11.2 11.23 12.48.58.35.84.9.69 1.49-.13.53-1.4 6.67-1.82 8.22-.28 1.03-1.23 1.55-2.34 1.63-1.33.1-6.24-.39-10.96-1.68-.68-.19-1.8-.16-.9 1.13 1.17 1.67 4.01 4.78 8.14 5.89 8.32 2.24 10.69.82 12.34-2.55 1.32-2.69 3.34-10.75 3.91-14.62.2-1.35-.38-2.58-1.48-3.22-4.85-2.85-16.41-10.28-14.16-20.19.71-3.14 15.23-3.64 19.93-4.52 4.84-.91 7.31-2.52 5.41-10.42-1.23-5.12-2.8-10.56-3.48-13.81-.41-1.93.29-3.72 2.34-4.93 1.91-1.13 4.56-2.62 7.54-4.41 2.72.47 7.17 1.27 10.38 2.07 2.55.64 3.66 1.44 3.66 5.22s-.02 9.48.07 12.05c.14 4 2.22 7.59 7.01 7.59s7.36-.1 9.35-.1 7.54-.28 11.63-4.72c.19-.21.88-.5 1.43-.21 1.67.86 6.33 4.01 8.73 7.12 0 0-.27 4.44-6.71 10.85-.37.36-.45.97.8.83 2.79-.31 8.71-2.01 11.18-6.97 3.58-7.19.55-10.19-1.97-12.32-2.15-1.82-5.53-5-9.56-6.83-1.49-.68-4.48-.1-5.63 1.16-1.7 1.85-5.45 4.54-9.54 4.54h-4.91c-2.53 0-4.55.31-4.73-3.95-.18-4.17-.18-8.87-.18-12.46s-.42-6.42-4.81-7.75c-2.41-.73-5.1-1.49-7.03-2.02 3.53-2.48 7.01-5.24 9.92-8.19 0 0 19.88 11.15 42.47 12.1.18 0 .46-.18.31-.51-.67-1.47-2.89-5.54-7.15-6.22" fill="#4f4f4f" data-color="1"/>
            <path d="M494.5 147.14h-17.33c-2.39 0-2.76-.43-3.55-4.7-.8-4.26-2.13-10.12-3.19-13.32-1.07-3.19-3.19-5.46-7.31-4.26 0 0 3.19 16.25 4.12 21.84.93 5.59 1.33 6.79 7.43 6.79h29.7c.34 0 .49-.21.34-.48-.82-1.38-3.49-5.88-10.21-5.88" fill="#4f4f4f" data-color="1"/>
            <path d="M421.92 163.83c-2.66-5.12-5.91-11.4-7.98-15.54-2-4.01 2.91-6.68 7.08-11.87 3.53-4.38 1.71-8.64 1.06-9.87-.12-.23-.42-.13-.55 0-6.51 6.56-9.88 9.7-18.36 11.51-3.43.73-10.49 1.11-15.79-5.59-5.63-7.11-1.95-17.21 2.95-22.78 16.07-18.25 23.3-28.63 22.45-49.95-.66-16.51-18.14-31.95-29.49-40.41-.34-.26-1.09-.32-1.13.42-.11 2.33.34 7.8 6.1 12.89 7.2 6.36 15.15 15.72 16.9 26.23 1.95 11.77-2.35 27.11-17.5 43.35-8.07 8.67-10.89 15.85-10.09 23.85.42 4.22 1.97 7.56 4.03 10.02 7.4 9.52 18.05 8.77 22.65 7.81-.79 1.64-.36 4.02 2.93 8.61 5.32 7.42 12.99 22.54 14.7 25.69.3.55.58.23.7.03 2.98-4.62 2.34-8.57-.69-14.39" fill="#4f4f4f" data-color="1"/>
            <path d="M473.74 21.36c-2.05-.68-6.17-.43-7.84-.2-1.76.24 2.84 2.53 4.8 3.67 1.87 1.07 3.13 1.07 3.36.27.38-1.39.22-2.63.09-3.23-.05-.24-.13-.4-.4-.49" fill="#4f4f4f" data-color="1"/>
            <path d="M394.64 18.59c8.72 7.57 15.28 13.54 20.81 25.33 8.13 17.31 3.47 34.5-1.94 45.97-5.71 12.12-15.7 19.94-19.73 26.13-2.9 4.46-3.68 10.64 1.99 14.3 13.22 8.52 39.16-24.64 42.59-46.25.97-6.12-.2-10.84-3.41-14.15-.21-.22-.69-.39-.74.09-.19 1.75-.81 6.5-2.36 12.82-3.72 15.18-11.19 28.13-24.27 38.93-7.07 5.83-11.29 1.05-6.67-3.82 11.19-11.81 17.85-20.33 22.24-31.51 4.33-11.06 8.88-33.89-6.84-55.52-8.21-11.3-16.86-17.92-28.26-28.08-.24-.21-.8-.26-.85.4-.19 2.48.12 8.99 7.45 15.35" fill="#4f4f4f" data-color="1"/>
            <path d="M471.97 59.18c-.17 1.07-.27 2.62-.26 3.22.02 1.15.1 5.02 2.97 7.9 2.33 2.35 7.35 6.83 9.13 8.42.4.36.68.28.73-.23.06-.54.14-1.34.21-2.27.15-1.79.3-4.38-2.64-7.58-2.34-2.54-7.31-7.69-9.25-9.7-.5-.52-.79-.38-.88.24" fill="#4f4f4f" data-color="1"/>
            <path d="M536.89 84.59c-1.59-.89-3.36-1.02-4.73-.09-3.5 2.38-15.23 6.3-26.88-1.32 12.29-14.72 25.19-23.36 27.84-25.06.32-.2.18-.51.02-.61-4.15-2.44-9.6-.71-16.87 5.55-4.21 3.63-11.06 10.22-15.01 14.07.16-2.79-.07-7.35-2.53-11.46 15.76-5.6 25.73-24.11 27.49-25.79 1.26-1.2 10.08-.22 11.29.4 3.05 1.55-.75 14.52.27 13.98 5.48-2.92 7.19-8.95 7.15-13.99-.03-3.2-.17-6.4-8.78-7.68-6.93-1.03-12.3.13-14.29 1.01-.48.21-.86.68-.94.83-8.2 16.97-22.09 23.92-26.93 25.91-6.29-6.01-10.26-9.94-10.26-9.94h7.7c2.92 0 6.51-.53 4.92-4.66-1.6-4.13-3.85-8.92-3.85-8.92s4.38-7.73 6.11-10.66c1.73-2.93 2.66-5.86-2.53-8.12-5.17-2.26-9.14-2.87-11.69-3.33-2.37-.43-2.14-1.02-2.79-2.26-.83-1.6-1.22-2.28-4.38-2.93-3.76-.78-11.16-2-11.16-2s-1.33-4.79-1.86-6.39c-.53-1.6-2.12-1.47-4.51.14-2.39 1.6-25.47 15.58-27.49 37.89-.73 7.99.58 14.71 2.96 20.22 4.46 10.37 13.13 17.45 15.49 19.24.38.29.64.2.7-.22.08-.54.19-1.39.3-2.39.2-1.63.36-3.93-1.75-6.87-4.37-6.06-8.03-9.57-9.94-16.75-3.43-12.91.32-30.1 20.71-42.66.21-.11.26.09.26.09l1.33 4.36s.12.18.24.2c1.65.2 13.69 1.71 13.94 1.78.28.07.42.28.42.28l1.92 2.95s.27.27.46.31c1.65.29 9.6 1.78 12.73 3.66.28.17.16.38.16.38l-4.97 9.37s-4.64.13-6.17.13-2.72.53-1.59 2.19c1.13 1.67 2 2.93 4.58 2.93h3.01l2.39 5.79s-5.02-.13-8.32-.13c-3.92 0-6.32 1.22-6.04 4.46.2 2.33 4.4 6.71 14.61 16.05 4.53 4.14 5.31 6.39 4.32 17.18 0 0 7.14 7.72 16.87 10.39 7.04 1.93 14.94 2.28 22.29-.93 0 0 6.1 3.91 8.43 8.56.06.13.08.56-.07.82-.91 1.5-4.24 6.04-8.35 8.93-.54.38-1.12.9-.19 1.08 2.49.48 8.05.58 13.29-4.94 4.56-4.8 2.71-8.3.51-11.38-2.53-3.53-6.22-7.63-9.84-9.64" fill="#4f4f4f" data-color="1"/>
            <path d="M456.28 59.18c-.16 1.07-.26 2.62-.26 3.22.01 1.15.1 5.02 2.97 7.9 2.33 2.35 7.35 6.83 9.13 8.42.4.36.68.28.73-.23.06-.54.14-1.34.21-2.27.14-1.79.3-4.38-2.64-7.58-2.34-2.54-7.31-7.69-9.25-9.7-.5-.52-.79-.38-.89.24Z" fill="#4f4f4f" data-color="1"/>
            <path d="M408.22 264.51v-60.08c0-2.17 1.75-3.92 3.91-3.92h37.27c2.06 0 3.19 1.03 3.19 2.89v.62c0 1.96-1.13 2.89-3.19 2.89h-34.18v25.19h25.84c2.06 0 3.19 1.03 3.19 2.89v.41c0 1.96-1.13 2.89-3.19 2.89h-25.84v26.22c0 2.17-1.03 3.2-3.09 3.2h-.93c-1.96 0-2.99-1.03-2.99-3.2Z" fill="#4f4f4f" data-color="1"/>
            <path d="M461.04 263.37v-58.95c0-2.17 1.75-3.92 3.91-3.92h39.84c2.06 0 3.19 1.03 3.19 2.89v.62c0 1.96-1.13 2.89-3.19 2.89h-36.75v23.02h29.44c2.06 0 3.19 1.03 3.19 2.89v.41c0 1.96-1.13 2.89-3.19 2.89h-29.44v24.78h37.37c2.06 0 3.19.93 3.19 2.79v.62c0 1.96-1.13 3-3.19 3h-40.46c-2.16 0-3.91-1.75-3.91-3.92Z" fill="#4f4f4f" data-color="1"/>
            <path d="M514.16 255.42c0-3 3.91-4.54 4.11-4.23 3.61 6.2 10.3 11.25 20.18 11.25s16.37-4.65 16.37-12.39c0-8.77-8.75-11.15-18.33-13.42-10.09-2.37-20.48-5.68-20.48-19 0-10.53 9.58-18.37 22.34-18.37 13.8 0 22.03 7.23 22.03 11.56 0 3-3.91 4.54-4.12 4.23-3.09-5.47-9.57-9.7-17.81-9.7-9.27 0-15.65 4.85-15.65 12.08 0 8.57 7 10.32 17.09 12.7 10.61 2.48 21.83 6.4 21.83 19.61 0 11.35-9.16 18.79-23.16 18.79-14.83 0-24.4-8.26-24.4-13.11Z" fill="#4f4f4f" data-color="1"/>
            <path d="M566.45 204.01v-.52c0-1.96 1.13-3 3.19-3h48.8c2.06 0 3.19 1.03 3.19 3v.52c0 1.86-1.13 2.89-3.19 2.89h-20.9v57.61c0 2.17-1.03 3.2-3.09 3.2h-.93c-1.95 0-2.99-1.03-2.99-3.2V206.9h-20.9c-2.06 0-3.19-1.03-3.19-2.89Z" fill="#4f4f4f" data-color="1"/>
            <path d="M631 264.51V203.3c0-2.06 1.03-3.2 2.99-3.2h.93c2.06 0 3.09 1.14 3.09 3.2v61.21c0 2.17-1.03 3.2-3.09 3.2h-.93c-1.95 0-2.99-1.03-2.99-3.2Z" fill="#4f4f4f" data-color="1"/>
            <path d="m654.99 203.29 20.9 56.67 21-56.67c.93-2.48 2.47-3.2 4.02-3.2 2.06 0 4.12 1.55 3.91 2.06l-24.4 63.18c-.72 1.75-1.65 2.58-4.63 2.58s-3.91-.83-4.63-2.58l-24.4-63.18c-.2-.52 1.85-2.06 4.02-2.06 1.64 0 3.29.72 4.22 3.2Z" fill="#4f4f4f" data-color="1"/>
            <path d="M744.15 245.51h-28.62l-7.21 19c-.93 2.48-2.47 3.2-4.02 3.2-2.06 0-4.12-1.55-3.91-2.06l24.4-63.18c.72-1.75 1.95-2.58 5.25-2.58s4.53.83 5.25 2.58l24.4 63.18c.2.51-1.86 2.06-4.02 2.06-1.65 0-3.3-.72-4.22-3.2l-7.31-19Zm-26.35-6.2h24.09l-12.04-31.38-12.04 31.38Z" fill="#4f4f4f" data-color="1"/>
            <path d="M767.3 263.37v-60.08c0-2.17 1.03-3.2 2.99-3.2h.92c2.06 0 3.09 1.03 3.09 3.2v57.5h32.12c2.06 0 3.19 1.03 3.19 3v.51c0 1.86-1.13 3-3.19 3h-35.21c-2.16 0-3.91-1.75-3.91-3.92Z" fill="#4f4f4f" data-color="1"/>
            <path d="M154.23 225.82c-5.1-8.23-8.73-17.24-10.89-26.91h-39.5l37.4-29.69c.87-12.63 3.91-24.77 9.08-36.17 6.11-13.45 14.42-28.05 24.69-43.39l13.94-20.68c-1.82-8.49-4.95-16.47-9.39-23.84-7.49-12.43-18.37-22.35-32.32-29.47C133.35 8.58 116.6 4.99 97.45 4.99S62.82 8.58 48.58 15.65c-14.31 7.12-25.84 17.57-34.29 31.06C5.88 60.18 1.11 76.28.15 94.56L0 97.3h74.96l.07-2.52c.21-7.24 2.12-13.03 5.64-17.22 3.45-4.08 8.24-6.07 14.64-6.07 4.06 0 7.54.8 10.36 2.36 2.84 1.58 4.98 3.62 6.54 6.23 1.54 2.57 2.31 5.68 2.31 9.24 0 5.43-1.3 10.12-3.85 13.97-2.73 4.11-7.17 9.01-13.16 14.57L1.57 204.29v61.83h188.2v-7.91c-15.15-7.88-27.1-18.76-35.54-32.38Z" fill="#4f4f4f" data-color="1"/>
            <path d="M199.17 256.88c-15.73-7.76-27.88-18.58-36.46-32.44-8.58-13.86-12.87-29.75-12.87-47.67 0-15.05 3.04-29.27 9.11-42.65 6.08-13.38 14.24-27.72 24.49-43.01l52.9-78.49h79l-55.05 83.15c1.19-.95 2.91-1.73 5.18-2.33 2.26-.59 4.7-.9 7.33-.9 15.49 0 29.49 3.77 42 11.29 12.51 7.53 22.34 17.8 29.49 30.82 7.15 13.03 10.72 27.66 10.72 43.91s-4.53 32.32-13.58 46.06c-9.06 13.74-21.39 24.5-36.99 32.26-15.61 7.76-32.59 11.65-50.94 11.65-20.5 0-38.6-3.89-54.33-11.65Zm70.77-47.85c5.24-3.1 9.41-7.29 12.51-12.54 3.09-5.25 4.65-10.99 4.65-17.21s-1.49-11.58-4.47-16.84c-2.98-5.25-7.15-9.38-12.51-12.37-5.36-2.99-11.38-4.48-18.05-4.48-6.2 0-11.92 1.5-17.16 4.48-5.24 2.99-9.42 7.11-12.51 12.37-3.1 5.26-4.65 11.11-4.65 17.56s1.55 12.25 4.65 17.38c3.09 5.14 7.33 9.14 12.69 12 5.36 2.87 11.26 4.3 17.7 4.3s11.91-1.55 17.16-4.66Z" fill="#4f4f4f" data-color="1"/>
        </g>
    </g>
</svg>
