<?xml version="1.0" encoding="UTF-8"?>
<svg data-bbox="0 0.01 1148.72 246.6" viewBox="0 0 1148.72 246.62" xmlns="http://www.w3.org/2000/svg" data-type="color">
    <g>
        <path d="M282.33 22.16c-15.96-14.18-38.41-22-63.2-22s-47.69 8.99-64.21 24.67l-1.37 1.3-1.37-1.3C135.65 9.16 112.24.16 87.96.16s-47.24 7.82-63.2 22C9.47 35.75 0 49.86 0 78.16v164.52h44.75V78.16c0-21.64 18.99-38.58 43.21-38.58s43.2 16.95 43.2 38.58v164.52h44.75V78.16c0-21.64 18.98-38.58 43.21-38.58s43.2 16.95 43.2 38.58v164.52h44.75V78.16c.01-28.31-9.46-42.41-24.75-56" fill="#4f4f4f" data-color="1"/>
        <path d="M467.2 169.83c0 11.04-3.97 21.18-11.17 28.54-7.94 8.1-19.24 12.39-32.69 12.39-9.37 0-26.59-1.82-36.71-14.03-7.88-9.5-9.09-23.29-3.02-34.32 10.74-19.51 35.27-26.85 57.86-31.47l2.49-.51c5-1.01 16.72-3.39 20.86-4.27l2.38-.5v44.17Zm19.52-147.91C471.54 7.69 450.07.16 424.61.16c-42.38 0-66.54 24.18-78.16 35.83l18.44 32.39.09-.1c11.04-11.95 41.2-38.28 82.85-24.53l.19.07c8.58 3.84 18.82 11.63 18.84 26.95v.1c.23 1.92.34 3.97.34 6.08v12.7l-48.13 9.57c-23.07 4.54-41.75 12.35-55.51 23.2-17.04 13.45-25.68 30.88-25.68 51.82 0 22.16 9.22 40.87 26.65 54.12 15.49 11.77 36.52 18.25 59.22 18.25s43.85-7.48 59.7-21.06c16.61-14.23 25.75-34.02 25.75-55.73V76.95c0-23.78-6.73-40.24-22.5-55.04" fill="#4f4f4f" data-color="1"/>
        <path d="M677.91 19.61a90.129 90.129 0 0 0-11.26-8.48c-9.09-5.78-18.33-9.31-27.47-10.5-17.74-2.3-38.76 1.9-54.87 10.98a73.23 73.23 0 0 0-14.11 10.32c-14.59 13.69-22.5 26.51-22.5 55.04v165.72h42.01V74.72c0-4.01.09-7.63 1.13-11.32 1.69-5.99 5.45-11.58 10.59-15.76 2.27-1.86 4.77-3.41 7.45-4.61 16.34-6.78 34.22-2.81 48.22 10.58 18.74-17.44 25.77-23.99 28.47-26.47-2.23-2.47-6.76-6.73-7.68-7.54" fill="#4f4f4f" data-color="1"/>
        <path d="M1106.71 169.83c0 11.04-3.97 21.18-11.17 28.54-7.94 8.1-19.24 12.39-32.69 12.39-9.37 0-26.59-1.82-36.71-14.03-7.88-9.5-9.09-23.29-3.02-34.32 10.74-19.51 35.27-26.85 57.85-31.47l2.41-.49c5.02-1.02 16.78-3.4 20.94-4.28l2.38-.5v44.17ZM1064.13.16c-42.38 0-66.54 24.18-78.16 35.83l18.43 32.39.1-.1c11.04-11.95 41.2-38.28 82.85-24.53l.19.07c8.58 3.84 18.82 11.63 18.84 26.95v.1c.23 2.02.34 4.05.33 6.08v12.7l-48.13 9.57c-23.07 4.54-41.74 12.35-55.51 23.2-17.04 13.45-25.68 30.88-25.68 51.82 0 22.16 9.22 40.87 26.66 54.12 15.49 11.77 36.52 18.25 59.22 18.25s43.84-7.48 59.7-21.06c16.61-14.23 25.75-34.02 25.75-55.73V76.95c0-22.2-7.78-41.23-22.5-55.04-15.17-14.23-36.65-21.76-62.1-21.76" fill="#4f4f4f" data-color="1"/>
        <path d="M907.38 113.21c-10.82-5.77-22.09-10.01-34.65-14.58l-1.84-.67c-8.1-2.94-16.46-5.97-24.2-9.88-9.77-4.93-15.21-10.33-17.13-16.98l-.06-.21a19.637 19.637 0 0 1 3.76-17.64c3.79-4.62 9.67-8.19 17.47-10.6 3.52-1.08 7.14-1.84 10.8-2.27 13.42-1.61 27.23.8 39.95 6.95 8.53 4.12 16.55 9.79 23.84 16.83.34.33 3.33 3.32 4.02 4.13l.09.11.06-.11c.13-.23 17.3-30.4 18.37-32.29C936.23 24.34 912.08.16 869.7.16c-26.21 0-49.95 8.36-65.13 22.95-15.8 15.18-21.97 37.7-16.1 58.76 4.47 16.06 17.26 30.41 36 40.41 11.72 6.25 24.59 11.05 35.74 15.05l1.41.51c9.76 3.5 19.85 7.12 28.72 12.63 10.45 6.49 15.75 14.9 15.75 24.98 0 13.88-11.33 23.63-23.58 28.97-13.64 5.95-29.5 4.02-43.52-.16-19.08-5.6-38.35-25.09-38.54-25.29l-18.95 31.84c11.64 11.66 35.79 35.8 78.14 35.8 3.43 0 6.93-.15 10.42-.46l2.14-.19v.06h.08c18.73-1.9 35.66-8.21 48.94-18.25 17.34-13.1 26.88-31.68 26.88-52.32 0-14.83-4.15-28.28-12.01-38.9-6.6-8.92-15.99-16.56-28.72-23.34" fill="#4f4f4f" data-color="1"/>
        <path d="M750.7 4.18h-42.02v238.49h42.02V4.18" fill="#4f4f4f" data-color="1"/>
    </g>
</svg>
