<?xml version="1.0" encoding="UTF-8"?>
<svg data-bbox="0 0 1594.07 226.928" width="1594" height="227" viewBox="0 0 1594 227" xmlns="http://www.w3.org/2000/svg" data-type="color">
    <g>
        <g clip-path="url(#0c20335f-4a77-4356-8fa6-71dcfed65d08)">
            <path d="M0 167.624v-31.41c0-.932.64-1.541 1.601-1.541h116.198c.96 0 1.601.609 1.601 1.541v17.103c0 3.729 3.237 5.271 6.439 5.271s6.44-1.542 6.44-5.271v-13.374c0-8.067-3.558-11.509-11.634-11.509H55.181C11.314 128.434 0 110.685 0 88.634V59.412C0 9.645 67.776 0 125.875 0 183.974 0 251.75 9.645 251.75 59.376v29.545c0 .932-.641 1.542-1.601 1.542H133.951c-.961 0-1.601-.61-1.601-1.542v-11.51c0-4.338-3.238-5.915-6.44-5.915-3.202 0-6.439 1.541-6.439 5.916v11.186c0 5.271.64 8.068 12.274 8.068h57.779c49.702 0 62.297 12.119 62.297 46.325v24.561c0 49.767-67.776 59.376-125.875 59.376C67.847 226.928 0 217.355 0 167.624Z" fill="#4f4f4f" data-color="1"/>
            <path d="M509.975 6.203v214.594c0 .932-.641 1.542-1.601 1.542h-112.96c-.961 0-1.601-.61-1.601-1.542v-76.802h-12.915v76.802c0 .932-.64 1.542-1.601 1.542h-112.96c-.961 0-1.601-.61-1.601-1.542V6.203c0-.932.64-1.542 1.601-1.542h112.96c.961 0 1.601.61 1.601 1.542v72.464h12.915V6.203c0-.932.64-1.542 1.601-1.542h112.96c.96 0 1.601.61 1.601 1.542Z" fill="#4f4f4f" data-color="1"/>
            <path d="M639.052 73.073v8.713h75.852c.961 0 1.601.61 1.601 1.255v59.699c0 .61-.64 1.255-1.601 1.255h-75.852v9.968h75.852c.961 0 1.601.609 1.601 1.542v65.292c0 .932-.64 1.542-1.601 1.542H524.491c-.961 0-1.601-.61-1.601-1.542V6.203c0-.932.64-1.542 1.601-1.542h190.413c.961 0 1.601.61 1.601 1.542v65.328c0 .933-.64 1.542-1.601 1.542h-75.852Z" fill="#4f4f4f" data-color="1"/>
            <path d="M976.01 222.339H862.09c-.641 0-1.601-.323-1.921-.932-1.922-3.407-1.601-9.036-1.601-11.833v-48.512c0-3.729-1.281-7.135-4.839-7.135h-8.076v66.87c0 .932-.641 1.542-1.601 1.542h-112.96c-.961 0-1.601-.61-1.601-1.542V6.203c0-.932.64-1.542 1.601-1.542h145.229c90.368 0 98.444 25.493 98.444 56.293v13.374c0 23.629-10.317 38.867-32.589 46.325v5.916c21.952 4.339 32.589 23.306 32.589 41.664v24.561c0 11.832.32 18.358 2.918 27.68.32 1.255 0 1.865-1.601 1.865h-.072ZM858.532 74.005c0-3.729-1.281-6.525-4.839-7.135h-8.076v28.003h8.076c3.558 0 4.839-1.864 4.839-8.713V74.005Z" fill="#4f4f4f" data-color="1"/>
            <path d="M1232.6 76.48v18.035c0 40.122-14.52 71.818-108.12 71.818h-20.99v54.428c0 .932-.64 1.542-1.6 1.542H988.925c-.96 0-1.601-.61-1.601-1.542V6.203c0-.932.641-1.542 1.601-1.542h135.555c93.6 0 108.12 31.732 108.12 71.818Zm-116.2 3.728c0-3.729-1.28-7.135-4.84-7.135h-8.07v31.087h8.07c3.56 0 4.84-3.12 4.84-5.594V80.208Z" fill="#4f4f4f" data-color="1"/>
            <path d="M1480.51 222.339h-115.56c-.96 0-1.6-.61-1.6-1.542l-1.6-32.664h-17.76l-1.92 32.664c0 .932-.64 1.542-1.6 1.542h-115.88c-.96 0-1.92-.61-1.6-1.542l31.24-214.594c.32-.932.64-1.542 1.6-1.542h193.97c.96 0 1.28.61 1.6 1.542l30.67 214.558c.32.932-.64 1.542-1.6 1.542l.04.036Zm-122-96.092-.64-9.323c-.64-14.629-2.6-30.154-3.56-50.054h-3.24c-.96 19.577-2.24 34.816-3.23 50.054l-.64 9.323h11.31Z" fill="#4f4f4f" data-color="1"/>
            <path d="M1514.84 220.797v-58.588h-19.64v-11.473l9.96-143.888c.32-.932.64-1.541 1.6-1.541h22.84c.96 0 1.61.61 1.61 1.541V148.55h4.19c.96 0 1.28.322 1.28 1.255v11.151c0 .609-.32 1.254-1.28 1.254h-4.19v58.588c0 .932-.65 1.542-1.61 1.542h-13.2c-.96 0-1.6-.61-1.6-1.542h.04Zm0-72.248v-19.542c0-22.947 2.56-83.722 3.56-111.008h-2.24l-6.44 130.55h5.15-.03Z" fill="#4f4f4f" data-color="1"/>
            <path d="M1572.12 145.142v62.317h6.12v-82.79c0-.932.64-1.542 1.6-1.542h12.56c.96 0 1.6.61 1.6 1.542v96.128c0 .932-.64 1.542-1.6 1.542h-36.36V150.09c0-22.624 6.12-33.166 11.92-41.879 4.84-7.744 9.64-13.625 9.64-30.082V22.338c0-1.865 0-4.339-2.56-4.339s-2.56 2.474-2.56 4.339v73.79c0 .932-.65 1.542-1.61 1.542h-13.2c-.96 0-1.6-.61-1.6-1.542V26.676c0-16.134 5.48-22.015 19-22.015s19 5.88 19 22.015v49.911c0 20.15-5.48 27.895-10.96 35.676-5.48 7.745-10.95 14.88-10.95 32.879h-.04Z" fill="#4f4f4f" data-color="1"/>
        </g>
        <defs fill="none">
            <clipPath id="0c20335f-4a77-4356-8fa6-71dcfed65d08">
                <path d="M1594 0v227H0V0h1594z" fill="#4f4f4f"/>
            </clipPath>
        </defs>
    </g>
</svg>
