<?xml version="1.0" encoding="UTF-8"?>
<svg data-bbox="0 0 165.304 64" xmlns="http://www.w3.org/2000/svg" viewBox="0 0 166 64" height="64" width="166" data-type="color">
    <g>
        <g clip-path="url(#9c97f35c-8dc4-4983-a228-3a5db879e738)">
            <path fill="#4f4f4f" d="M165.304 0h-9.131a7.64 7.64 0 0 0-6.323 3.352l-12.211 18.014a.82.82 0 0 1-1.356 0L124.071 3.352A7.64 7.64 0 0 0 117.748 0h-9.131l21.754 32.09L108.737 64h9.131a7.64 7.64 0 0 0 6.324-3.352l12.091-17.835a.82.82 0 0 1 1.356 0l12.091 17.835A7.63 7.63 0 0 0 156.053 64h9.131l-21.633-31.91z" data-color="1"/>
            <path fill="#4f4f4f" d="M89.828 6.547V64h4.364a6.546 6.546 0 0 0 6.548-6.547V0h-4.364a6.546 6.546 0 0 0-6.548 6.547" data-color="1"/>
            <path fill="#4f4f4f" d="M81.828 0h-3.884a9.154 9.154 0 0 0-8.928 7.126l-8.688 38.193-7.605-35.653C51.317 3.077 44.556-1.366 37.638.544c-4.407 1.217-7.674 4.94-8.627 9.41l-7.527 35.317-8.672-38.143A9.16 9.16 0 0 0 3.88 0H0l14.555 63.997h5.514c5.005 0 9.329-3.498 10.373-8.393l9.304-43.664c.115-.542.6-.934 1.153-.934s1.038.392 1.153.934l9.313 43.667a10.6 10.6 0 0 0 10.372 8.39h5.533z" data-color="1"/>
        </g>
        <defs fill="none">
            <clipPath id="9c97f35c-8dc4-4983-a228-3a5db879e738">
                <path fill="#4f4f4f" d="M165.305 0v64H0V0z"/>
            </clipPath>
        </defs>
    </g>
</svg>
